<?xml version="1.0" encoding="UTF-8" standalone="no"?>
<svg width="12px" height="16px" viewBox="0 0 12 16" version="1.1" xmlns="http://www.w3.org/2000/svg" xmlns:xlink="http://www.w3.org/1999/xlink">
    <!-- Generator: Sketch 49 (51002) - http://www.bohemiancoding.com/sketch -->
    <title>Shape</title>
    <desc>Created with Sketch.</desc>
    <defs></defs>
    <g id="Page-1" stroke="none" stroke-width="1" fill="none" fill-rule="evenodd">
        <g id="HOME-Copy-3" transform="translate(-162.000000, -472.000000)" fill="#716DC6" fill-rule="nonzero">
            <g id="Group-3" transform="translate(150.000000, 244.000000)">
                <g id="Group-2" transform="translate(0.000000, 216.000000)">
                    <path d="M23.6326148,12.0074256 C23.4564199,12.0413755 16.0599813,13.486135 15.9025305,13.5163127 C15.7450797,13.5464905 15.5988754,13.6521126 15.5988754,13.8180902 L15.5988754,22.8751854 C15.5988754,22.9355409 15.5951265,23.1467851 15.5089035,23.3165349 C15.3926898,23.5390958 15.190253,23.7013011 14.9053421,23.7956066 C14.7816307,23.837101 14.6129335,23.8748232 14.4142455,23.9200898 C13.5107779,24.1237895 12,24.4708336 12,25.8740987 C12,27.0472584 12.8397376,27.5753689 13.5632615,27.6659022 C13.6419869,27.6772188 13.7319588,27.6923077 13.8294283,27.6923077 C14.0805998,27.6923077 15.1790066,27.5678245 15.7488285,27.1943749 C16.1611996,26.9227752 16.6522962,26.3871203 16.6522962,25.3912548 L16.6522962,17.3752917 C16.6522962,17.2319474 16.7535145,17.1074642 16.8922212,17.0810587 L22.5904405,15.9229878 C22.7778819,15.8852656 22.950328,16.0286099 22.950328,16.2172208 L22.950328,21.155054 C22.950328,21.309715 22.9428304,21.4907814 22.8566073,21.6605312 C22.7403936,21.8830921 22.5379569,22.0452975 22.2492971,22.1396029 C22.1255858,22.1810973 21.9194002,22.2188195 21.7207123,22.2640861 C20.8172446,22.4677859 19.3064667,22.8110577 19.3064667,24.2143228 C19.3064667,25.4855602 20.2586692,25.9948096 20.873477,26.036304 C21.1171509,26.0513929 21.2933458,26.0476207 21.6007498,26.0023541 C21.9081537,25.9570874 22.4817245,25.7948821 22.9690722,25.5119657 C23.6401125,25.1234273 24,24.5010113 24,23.6937567 L24,12.2978863 C23.9962512,12.1319088 23.8575445,11.9621589 23.6326148,12.0074256 Z" id="Shape"></path>
                </g>
            </g>
        </g>
    </g>
</svg>