<svg viewBox="0 0 542 105" xmlns="http://www.w3.org/2000/svg" fill-rule="evenodd" clip-rule="evenodd" stroke-linejoin="round" stroke-miterlimit="1.414"><path d="M533.521 23.347v13.831c-7.067-9.01-16.413-15.404-31.758-15.404-22.425 0-39.246 17.491-39.246 40.467s16.283 41.771 38.975 41.771c13.879 0 25.358-7.829 31.9-16.187v15.584h8.275V23.347h-8.146zm-31.892 72.836c-18.425 0-30.971-15.274-30.971-34.333 0-17.491 12.546-32.769 31.363-32.769 18.291 0 32.171 13.578 32.171 33.025 0 21.803-14.813 34.077-32.563 34.077m-56.487-84.296c-3.25 0-5.754-2.563-5.75-5.933.004-3.505 2.483-5.946 5.804-5.946h.067c3.325 0 5.8 2.453 5.795 5.958-.004 3.362-2.508 5.925-5.758 5.921h-.158zm-4.113 11.444v80.082h8.392V23.339l-8.392-.008zM414.204.473v36.705c-7.071-9.01-16.416-15.404-31.762-15.404-22.425 0-39.242 17.491-39.242 40.467s16.279 41.771 38.975 41.771c13.875 0 25.358-7.833 31.892-16.187v15.584h8.275V.473h-8.138zm-31.896 95.706c-18.42 0-30.97-15.27-30.97-34.329 0-17.491 12.55-32.769 31.366-32.769 18.288 0 32.167 13.582 32.167 33.025 0 21.803-14.808 34.073-32.563 34.073m-61.97-72.832v13.831c-7.071-9.01-16.417-15.404-31.767-15.404-22.421 0-39.238 17.491-39.238 40.467s16.284 41.771 38.975 41.771c13.88 0 25.355-7.829 31.896-16.187v15.584h8.275V23.347h-8.141zm-31.901 72.836c-18.416 0-30.966-15.274-30.966-34.333 0-17.491 12.546-32.769 31.362-32.769 18.292 0 32.171 13.578 32.171 33.025 0 21.803-14.816 34.077-32.567 34.077m-73.087.127c-19.346 0-33.937-14.284-33.937-32.838 0-19.594 14.474-34.367 33.67-34.367 8.584 0 15.834 2.669 22.138 8.147l3.737-6.513c-7.916-6.275-16.158-9.1-26.537-9.1-22.704 0-41.175 18.706-41.175 41.702 0 23.107 18.158 40.822 42.237 40.822 9.429 0 18.788-3.648 25.709-9.492l-3.93-6.61c-7.562 5.392-12.812 8.249-21.912 8.249m-73.754-48.133c0-7.559 6.375-18.53 18.504-18.53 4.663 0 9.267 2.127 9.267 2.127l4.266-7.274c-4.141-2.759-10.891-2.82-10.891-2.82-9.196 0-16.884 4.923-21.146 11.574v-9.846H133.2v80.009h8.396v-55.24zM15.888 93.058c8.658-12.039 18.537-18.522 35.208-19.598 16.717-1.08 35.717 7.368 60.262 29.945h10.725L61.042-.004 0 103.409h9.296c.933-1.496 5.612-8.99 6.592-10.351m45.154-76.28l42.337 71.455c-6.237-6.908-20.946-16.994-35.296-20.76-11.479-2.873-28.425-3.089-39.079 4.116-.329.229-.8.689-.8.689l32.838-55.5z" fill-rule="nonzero"/></svg>